<svg id="Layer_1" data-name="Layer 1" xmlns="http://www.w3.org/2000/svg" viewBox="0 0 1280 250"><path d="M439.19,80.74v89.37H415.44V120.8l-16.12,49.31H379.44L363.2,120.42v49.69H339.45V80.74h28.72l21.45,58.06,21-58.06Z"/><path d="M482.58,80.74v89.37H458.82V80.74Z"/><path d="M566.56,80.74v19.77H543.78v69.6H520v-69.6H497.48V80.74Z"/><path d="M618.43,163.58q-9.58-7.41-10.3-21.23h25.32q.38,4.69,2.67,6.85a9.31,9.31,0,0,0,11.33.44,5.79,5.79,0,0,0,2.12-4.76,6.78,6.78,0,0,0-3.51-6.08A60.76,60.76,0,0,0,634.67,134a99.37,99.37,0,0,1-13.52-5.64,26.24,26.24,0,0,1-9-8q-3.83-5.25-3.82-13.75a24.9,24.9,0,0,1,15.51-24.09,40.92,40.92,0,0,1,16.48-3.17q14.91,0,23.82,7.29t9.51,20.48H647.88c-.09-2.71-.87-4.74-2.37-6.09a8.24,8.24,0,0,0-5.75-2,6,6,0,0,0-4.37,1.65,6.24,6.24,0,0,0-1.69,4.69,5.9,5.9,0,0,0,1.88,4.38,17,17,0,0,0,4.66,3.16q2.79,1.34,8.24,3.36A99.68,99.68,0,0,1,661.87,122a27.62,27.62,0,0,1,9.09,8q3.82,5.13,3.82,13A27.19,27.19,0,0,1,671,157.31a26.52,26.52,0,0,1-11,10,36.89,36.89,0,0,1-17,3.68Q628,171,618.43,163.58Z"/><path d="M768.34,80.74v89.37H744.59V134.24h-29v35.87H691.87V80.74h23.75v33.59h29V80.74Z"/><path d="M842,155.53H811.73l-4.61,14.58h-25L813.3,80.74h27.39l31,89.37H846.63Zm-5.94-19-9.21-28.91-9.09,28.91Z"/><path d="M962,80.74v89.37H938.25V134.24h-29v35.87H885.53V80.74h23.75v33.59h29V80.74Z"/></svg>